# xmcd
#
# Track frame offsets:
#	150
#	17327
#	37825
#	51947
#	74505
#	93767
#	107655
#	123607
#
# Disc length: 1885 seconds
#
# Revision: 1
# Processed by: cddbd v1.5PL3 Copyright (c) Steve Scherf et al.
# Submitted via: CDex 1.50Beta5
#
DISCID=5f075b08
DTITLE=宍戸留美 - Set me Free
DYEAR=1900
DGENRE=Pop
TTITLE0=SANTA ANA NIGHT
TTITLE1=ゴキゲンな彼
TTITLE2=ロマンチック殺人事件
TTITLE3=最後の丘
TTITLE4=1990 (ALL THE YOUNG NERDS)
TTITLE5=COOKIE KISS
TTITLE6=PUPPY TREE
TTITLE7=あたたかい公園の中の小さな気持ち
EXTD=
EXTT0=
EXTT1=
EXTT2=
EXTT3=
EXTT4=
EXTT5=
EXTT6=
EXTT7=
PLAYORDER=
